<?xml version="1.0" encoding="utf-8"?>
<!-- Generator: Adobe Illustrator 25.0.1, SVG Export Plug-In . SVG Version: 6.00 Build 0)  -->
<svg version="1.0" id="Layer_1" xmlns="http://www.w3.org/2000/svg" xmlns:xlink="http://www.w3.org/1999/xlink" x="0px" y="0px"
	 viewBox="0 0 994 609" style="enable-background:new 0 0 994 609;" xml:space="preserve">
<style type="text/css">
	.st0{fill:none;}
</style>
<path id="path2" d="M330.2,355.7h-21.3c-40.4-0.1-73.1-32.8-73.1-73.2c0-39.8,33.3-73.1,73.1-73.1h21.3V355.7z"/>
<path id="path4" d="M119.1,209.4h21.3c40.3,0.1,73,32.7,73.1,73.1c0,39.8-33.3,73.1-73.1,73.1h-21.3V209.4z"/>
<path id="rect2" d="M627.2,209.4v146.2h22.1V209.4H627.2z"/>
<path id="path4-2" d="M562.2,254.4c-28,0-50.6,22.7-50.6,50.6s22.7,50.6,50.6,50.6s50.6-22.7,50.6-50.6l0,0
	C612.8,277.1,590.2,254.4,562.2,254.4z M562.2,335.4c-16.9-0.4-30.2-14.4-29.8-31.2c0.4-16,13.1-29.1,29.1-29.8h0.7
	c16.8,0.6,30,14.8,29.4,31.6C591,321.9,578.2,334.8,562.2,335.4z"/>
<path id="path6" d="M719,254.4c-10.3,0-20.5,3.1-28.9,9.1v-54.1h-22.2v146.3h22.2v-9.2c22.9,16,54.5,10.4,70.5-12.5
	c16-22.9,10.4-54.5-12.5-70.5C739.5,257.6,729.4,254.4,719,254.4z M719,335.4c-16.9,0-30.5-13.7-30.5-30.5
	c0-16.9,13.7-30.5,30.5-30.5c16.8,0,30.5,13.7,30.5,30.5C749.5,321.7,735.9,335.4,719,335.4C719,335.4,719,335.4,719,335.4z"/>
<path id="path8" d="M427.3,209.4h-52.8v146.1h52.8c40.3,0,73-32.7,73-73S467.7,209.4,427.3,209.4L427.3,209.4z M427.3,333.3h-30.6
	V231.6h30.6c28.1,0,50.9,22.8,50.9,50.9C478.2,310.6,455.4,333.3,427.3,333.3L427.3,333.3z"/>
<path id="path10" d="M850.8,254.4l-28.9,64.9l-28.8-64.9h-24.2l40.9,92l-10,22.6c-2.7,5.9-9.6,8.6-15.6,6l-3.2-1.4l-8.9,20.1l0,0
	l7.7,3.4c14.5,6.4,31.4-0.1,37.8-14.5l57.3-128.1L850.8,254.4z"/>
<rect x="97" y="188" class="st0" width="800" height="233"/>
</svg>
